<svg xmlns="http://www.w3.org/2000/svg" width="423.33334mm" height="423.33334mm" viewBox="0 0 1500 1500">
  <g  transform="translate(44.285713,-150.93364)">
    <rect style="fill:#e70009;" width="1500" height="1500" x="-44.285694" y="150.93365" />
    <circle style="fill:#ffffff" cx="705.71429" cy="900.93365" r="750" />
    <circle style="opacity:1;fill:#e70009" cx="705.71429" cy="900.93365" r="675" />
    <path d="m 262.60203,726.7742 c 0.004,61.44813 2.10762,66.39715 38.00066,66.29004 35.50465,-0.10987 736.27581,-0.85075 736.79061,-0.84445 27.4269,0.34084 34.7528,-6.32603 34.6228,-53.20093 C 1071.3366,493.70249 915.79485,438.08136 664.56456,439.65811 449.2298,441.00958 262.58558,489.45372 262.60203,726.7742 Z" style="fill:#ffffff" />
    <path d="m 434.02723,732.26318 -24.34677,-73.2429 -76.84739,-0.27896 62.13456,-45.78848 -23.48183,-73.1724 62.74806,44.94407 62.33481,-44.94407 -23.35414,73.56543 62.00687,45.39543 -77.1817,0.52188 -24.01247,73 z" style="fill:#e70009" />
    <path d="m 669.63101,731.39176 -24.34677,-73.2429 -76.84739,-0.27896 62.13456,-45.78848 -23.48183,-73.1724 62.74806,44.94407 62.33481,-44.94407 -23.35414,73.56543 62.00687,45.39543 -77.1817,0.52188 -24.01247,73 z" style="fill:#e70009" />
    <path d="m 904.8133,732.23621 -24.34677,-73.2429 -76.84739,-0.27896 62.13456,-45.78848 -23.48183,-73.1724 62.74806,44.94407 62.33481,-44.94407 -23.35414,73.56543 62.0069,45.39543 -77.18173,0.52188 -24.01247,73 z" style="fill:#e70009" />
    <path d="m 294.69148,817.55356 c -22.20163,-0.12723 -29.9783,5.91121 -29.9783,24.91153 0,39.30364 -2.97409,342.86361 -1.26669,392.25131 0.67134,19.4187 11.40144,25.1448 25.75601,25.3337 32.09222,0.4223 111.8945,1.4733 141.44689,0.8445 20.26702,-0.4223 28.99223,-10.1109 29.9783,-39.2674 0.92446,-27.3349 -0.43386,-72.6303 0.42223,-113.1575 0.28867,-13.6657 5.06677,-23.6448 19.00034,-24.0671 35.31507,-1.0701 171.05739,-1.0881 198.02565,-0.4222 34.20059,0.8445 39.68957,0.4222 40.53404,35.8895 1.00351,42.1476 0.84445,67.979 -0.42224,100.4906 -1.35331,34.7353 10.13351,38.0007 28.7116,38.4229 27.43784,0.6236 90.78002,-0.8906 122.44658,-0.4222 42.10314,0.604 41.31851,-12.2259 41.80072,-67.1345 0.21772,-23.6476 0.0349,-106.0184 -0.84446,-143.5581 -0.21842,-9.3247 4.6454,-15.9394 10.97797,-16.0447 25.81525,-0.4222 31.18998,67.1449 37.57843,100.9129 23.68297,125.1833 78.42785,141.1501 128.35775,141.4469 62.5896,0.3921 122.2284,-51.4989 122.4466,-158.3361 0.033,-16.0863 -3.3778,-29.9783 -15.2003,-29.9783 -52.7924,0 -21.9634,0.7739 -49.823,0 -14.7781,-0.4222 -27.8672,1.6889 -24.9116,24.4893 2.9556,22.8004 4.2549,65.2989 -24.4893,66.2901 -12.2447,0.4222 -21.9559,-8.4446 -21.9559,-33.3562 0,-24.9115 -1.7545,-278.68645 -2.5334,-298.93849 -0.4223,-10.97798 -0.8445,-27.44492 -22.8004,-27.02269 -27.4394,0.54879 -708.74474,0.66354 -753.25752,0.42224 z" style="fill:#ffffff"/>
  </g>
</svg>
