<?xml version="1.0" encoding="utf-8"?>
<!-- Generator: Adobe Illustrator 25.0.0, SVG Export Plug-In . SVG Version: 6.00 Build 0)  -->
<svg version="1.1" id="Layer_1" xmlns="http://www.w3.org/2000/svg" xmlns:xlink="http://www.w3.org/1999/xlink" x="0px" y="0px"
	 viewBox="0 0 1200 1200" style="enable-background:new 0 0 1200 1200;" xml:space="preserve">
<style type="text/css">
	.st0{display:none;fill:#E70009;}
	.st1{fill:#FFFFFF;}
	.st2{fill:#E70009;}
</style>
<g transform="translate(44.285713,-150.93364)">
	<rect x="-44.3" y="150.9" class="st0" width="1200" height="1200"/>
	<circle class="st1" cx="555.7" cy="750.9" r="600"/>
	<circle class="st2" cx="555.7" cy="750.9" r="540"/>
	<path class="st1" d="M201.2,611.6c0,49.2,1.7,53.1,30.4,53c28.4-0.1,589-0.7,589.4-0.7c21.9,0.3,27.8-5.1,27.7-42.6
		c-0.5-196.3-125-240.7-326-239.5C350.5,383,201.2,421.7,201.2,611.6z"/>
	<path class="st2" d="M338.4,616l-19.5-58.6l-61.5-0.2l49.7-36.6L288.3,462l50.2,36l49.9-36l-18.7,58.9l49.6,36.3l-61.7,0.4
		L338.4,616L338.4,616z"/>
	<path class="st2" d="M526.8,615.3l-19.5-58.6l-61.5-0.2l49.7-36.6l-18.8-58.5l50.2,36l49.9-36l-18.7,58.9l49.6,36.3l-61.7,0.4
		L526.8,615.3L526.8,615.3z"/>
	<path class="st2" d="M715,616l-19.5-58.6l-61.5-0.2l49.7-36.6L665,462l50.2,36l49.9-36l-18.7,58.9l49.6,36.3l-61.7,0.4L715,616
		L715,616z"/>
	<path class="st1" d="M226.9,684.2c-17.8-0.1-24,4.7-24,19.9c0,31.4-2.4,274.3-1,313.8c0.5,15.5,9.1,20.1,20.6,20.3
		c25.7,0.3,89.5,1.2,113.2,0.7c16.2-0.3,23.2-8.1,24-31.4c0.7-21.9-0.3-58.1,0.3-90.5c0.2-10.9,4.1-18.9,15.2-19.3
		c28.3-0.9,136.8-0.9,158.4-0.3c27.4,0.7,31.8,0.3,32.4,28.7c0.8,33.7,0.7,54.4-0.3,80.4c-1.1,27.8,8.1,30.4,23,30.7
		c22,0.5,72.6-0.7,98-0.3c33.7,0.5,33.1-9.8,33.4-53.7c0.2-18.9,0-84.8-0.7-114.8c-0.2-7.5,3.7-12.8,8.8-12.8
		c20.7-0.3,25,53.7,30.1,80.7c18.9,100.1,62.7,112.9,102.7,113.2c50.1,0.3,97.8-41.2,98-126.7c0-12.9-2.7-24-12.2-24
		c-42.2,0-17.6,0.6-39.9,0c-11.8-0.3-22.3,1.4-19.9,19.6c2.4,18.2,3.4,52.2-19.6,53c-9.8,0.3-17.6-6.8-17.6-26.7
		c0-19.9-1.4-222.9-2-239.2c-0.3-8.8-0.7-22-18.2-21.6C807.6,684.3,262.5,684.4,226.9,684.2L226.9,684.2z"/>
</g>
</svg>
